<svg width="25" height="25" viewBox="0 0 25 25" fill="none" xmlns="http://www.w3.org/2000/svg">
<path d="M18.2292 9.37404C17.2968 9.37388 16.3788 9.60471 15.5573 10.0459C15.4823 9.84835 15.349 9.67827 15.175 9.55827C15.0011 9.43826 14.7947 9.37401 14.5834 9.37404H10.4167C10.1404 9.37404 9.87549 9.48379 9.68014 9.67914C9.48479 9.87449 9.37504 10.1394 9.37504 10.4157V22.9157C9.37504 23.192 9.48479 23.4569 9.68014 23.6523C9.87549 23.8476 10.1404 23.9574 10.4167 23.9574H14.5834C14.8596 23.9574 15.1246 23.8476 15.3199 23.6523C15.5153 23.4569 15.625 23.192 15.625 22.9157V17.1865C15.625 16.9103 15.7348 16.6453 15.9301 16.45C16.1255 16.2546 16.3904 16.1449 16.6667 16.1449C16.943 16.1449 17.2079 16.2546 17.4033 16.45C17.5986 16.6453 17.7084 16.9103 17.7084 17.1865V22.9157C17.7084 23.192 17.8181 23.4569 18.0135 23.6523C18.2088 23.8476 18.4738 23.9574 18.75 23.9574H22.9167C23.193 23.9574 23.4579 23.8476 23.6533 23.6523C23.8486 23.4569 23.9584 23.192 23.9584 22.9157V15.1032C23.9564 13.5843 23.3522 12.1282 22.2782 11.0542C21.2042 9.9802 19.7481 9.37597 18.2292 9.37404ZM21.875 21.874H19.7917V17.1865C19.7917 16.3577 19.4625 15.5629 18.8764 14.9768C18.2904 14.3908 17.4955 14.0615 16.6667 14.0615C15.8379 14.0615 15.0431 14.3908 14.457 14.9768C13.871 15.5629 13.5417 16.3577 13.5417 17.1865V21.874H11.4584V11.4574H13.5417V12.1897C13.5416 12.4056 13.6086 12.6162 13.7334 12.7924C13.8582 12.9685 14.0347 13.1016 14.2385 13.1731C14.4422 13.2445 14.6631 13.251 14.8706 13.1914C15.0782 13.1319 15.2621 13.0093 15.3969 12.8407C15.8646 12.2471 16.5059 11.8143 17.2314 11.6027C17.9569 11.3912 18.7303 11.4115 19.4437 11.6608C20.1571 11.91 20.7749 12.3759 21.2108 12.9932C21.6467 13.6105 21.8789 14.3486 21.875 15.1042V21.874ZM7.29171 9.37404H3.12505C2.84878 9.37404 2.58383 9.48379 2.38848 9.67914C2.19313 9.87449 2.08338 10.1394 2.08338 10.4157V22.9157C2.08338 23.192 2.19313 23.4569 2.38848 23.6523C2.58383 23.8476 2.84878 23.9574 3.12505 23.9574H7.29171C7.56798 23.9574 7.83293 23.8476 8.02828 23.6523C8.22363 23.4569 8.33338 23.192 8.33338 22.9157V10.4157C8.33338 10.1394 8.22363 9.87449 8.02828 9.67914C7.83293 9.48379 7.56798 9.37404 7.29171 9.37404ZM6.25004 21.874H4.16671V11.4574H6.25004V21.874ZM5.224 1.60633C4.76785 1.57854 4.31081 1.64388 3.88072 1.79837C3.45062 1.95286 3.05647 2.19328 2.72226 2.50497C2.38805 2.81667 2.12078 3.19313 1.93672 3.61142C1.75266 4.02972 1.65565 4.4811 1.65162 4.93808C1.64759 5.39506 1.7366 5.84808 1.91325 6.26956C2.0899 6.69104 2.35049 7.07216 2.67914 7.38971C3.00779 7.70725 3.39764 7.95459 3.82494 8.11665C4.25224 8.27871 4.70805 8.35211 5.16463 8.33237H5.1938C5.65021 8.35845 6.10715 8.29132 6.53678 8.13509C6.96642 7.97886 7.35974 7.73679 7.6928 7.42363C8.02585 7.11048 8.29166 6.73279 8.47402 6.31358C8.65639 5.89437 8.7515 5.44242 8.75355 4.98527C8.75561 4.52812 8.66456 4.07534 8.48597 3.65451C8.30737 3.23368 8.04497 2.85362 7.71474 2.53748C7.38451 2.22135 6.99338 1.97575 6.56517 1.81567C6.13695 1.65558 5.68063 1.58436 5.224 1.60633ZM5.1938 6.24904H5.16463C4.98447 6.27104 4.80168 6.25425 4.62854 6.1998C4.45539 6.14536 4.2959 6.05452 4.16074 5.93337C4.02559 5.81223 3.91791 5.66358 3.84491 5.4974C3.77192 5.33123 3.73532 5.15136 3.73755 4.96987C3.73755 4.19175 4.32088 3.68966 5.224 3.68966C5.40589 3.66573 5.59079 3.681 5.76629 3.73446C5.94178 3.78792 6.1038 3.87832 6.24145 3.99959C6.37911 4.12087 6.48921 4.2702 6.56435 4.43756C6.6395 4.60492 6.67795 4.78642 6.67713 4.96987C6.67713 5.74696 6.0938 6.24904 5.19275 6.24904H5.1938Z" fill="#111111"/>
</svg>
