<svg width="25" height="25" viewBox="0 0 25 25" fill="none" xmlns="http://www.w3.org/2000/svg">
<path d="M18.0625 5.68742C17.8153 5.68742 17.5736 5.76073 17.368 5.89808C17.1625 6.03543 17.0022 6.23066 16.9076 6.45906C16.813 6.68747 16.7883 6.93881 16.8365 7.18128C16.8847 7.42376 17.0038 7.64649 17.1786 7.8213C17.3534 7.99612 17.5761 8.11517 17.8186 8.1634C18.0611 8.21163 18.3124 8.18688 18.5408 8.09227C18.7692 7.99766 18.9645 7.83744 19.1018 7.63188C19.2392 7.42632 19.3125 7.18465 19.3125 6.93742C19.3125 6.6059 19.1808 6.28796 18.9464 6.05354C18.7119 5.81911 18.394 5.68742 18.0625 5.68742ZM22.8541 8.20825C22.8339 7.34398 22.672 6.48888 22.375 5.677C22.1101 4.98235 21.6979 4.35333 21.1666 3.83325C20.6508 3.29932 20.0204 2.88969 19.3229 2.63534C18.5132 2.32925 17.6571 2.16368 16.7916 2.14575C15.6875 2.08325 15.3333 2.08325 12.5 2.08325C9.66665 2.08325 9.31248 2.08325 8.20831 2.14575C7.34285 2.16368 6.4868 2.32925 5.67706 2.63534C4.98089 2.89226 4.35095 3.30154 3.83331 3.83325C3.29938 4.34906 2.88975 4.97954 2.6354 5.677C2.32931 6.48673 2.16374 7.34279 2.14581 8.20825C2.08331 9.31242 2.08331 9.66659 2.08331 12.4999C2.08331 15.3333 2.08331 15.6874 2.14581 16.7916C2.16374 17.6571 2.32931 18.5131 2.6354 19.3228C2.88975 20.0203 3.29938 20.6508 3.83331 21.1666C4.35095 21.6983 4.98089 22.1076 5.67706 22.3645C6.4868 22.6706 7.34285 22.8362 8.20831 22.8541C9.31248 22.9166 9.66665 22.9166 12.5 22.9166C15.3333 22.9166 15.6875 22.9166 16.7916 22.8541C17.6571 22.8362 18.5132 22.6706 19.3229 22.3645C20.0204 22.1102 20.6508 21.7005 21.1666 21.1666C21.7002 20.6484 22.1128 20.0189 22.375 19.3228C22.672 18.511 22.8339 17.6559 22.8541 16.7916C22.8541 15.6874 22.9166 15.3333 22.9166 12.4999C22.9166 9.66659 22.9166 9.31242 22.8541 8.20825ZM20.9791 16.6666C20.9716 17.3278 20.8518 17.9829 20.625 18.6041C20.4587 19.0574 20.1915 19.467 19.8437 19.802C19.5059 20.1463 19.0971 20.4129 18.6458 20.5833C18.0247 20.8101 17.3695 20.9298 16.7083 20.9374C15.6666 20.9895 15.2812 20.9999 12.5416 20.9999C9.80206 20.9999 9.41665 20.9999 8.37498 20.9374C7.68841 20.9503 7.00477 20.8446 6.35415 20.6249C5.92267 20.4458 5.53264 20.1799 5.20831 19.8437C4.86257 19.509 4.59877 19.0991 4.43748 18.6458C4.18316 18.0157 4.04211 17.3457 4.02081 16.6666C4.02081 15.6249 3.95831 15.2395 3.95831 12.4999C3.95831 9.76034 3.95831 9.37492 4.02081 8.33325C4.02548 7.65727 4.14889 6.98736 4.3854 6.35409C4.56878 5.91441 4.85026 5.52248 5.20831 5.20825C5.52479 4.85009 5.9159 4.56564 6.35415 4.37492C6.9891 4.1458 7.65831 4.02604 8.33331 4.02075C9.37498 4.02075 9.7604 3.95825 12.5 3.95825C15.2396 3.95825 15.625 3.95825 16.6666 4.02075C17.3279 4.02834 17.983 4.14809 18.6041 4.37492C19.0775 4.5506 19.5024 4.83622 19.8437 5.20825C20.1851 5.52823 20.4518 5.91943 20.625 6.35409C20.8565 6.98839 20.9763 7.65802 20.9791 8.33325C21.0312 9.37492 21.0416 9.76034 21.0416 12.4999C21.0416 15.2395 21.0312 15.6249 20.9791 16.6666ZM12.5 7.15617C11.4435 7.15823 10.4114 7.47338 9.534 8.06181C8.65659 8.65024 7.97329 9.48554 7.57043 10.4622C7.16757 11.4388 7.06323 12.5129 7.2706 13.5488C7.47796 14.5847 7.98773 15.5359 8.73548 16.2822C9.48323 17.0285 10.4354 17.5364 11.4717 17.7417C12.508 17.9471 13.5819 17.8407 14.5578 17.4359C15.5336 17.0311 16.3676 16.3462 16.9543 15.4677C17.541 14.5891 17.8541 13.5564 17.8541 12.4999C17.8555 11.7969 17.7179 11.1006 17.4492 10.4509C17.1805 9.80128 16.786 9.21118 16.2884 8.71456C15.7908 8.21793 15.1999 7.82458 14.5498 7.55714C13.8996 7.28969 13.203 7.15342 12.5 7.15617ZM12.5 15.9687C11.8139 15.9687 11.1433 15.7652 10.5728 15.3841C10.0024 15.0029 9.55781 14.4612 9.29527 13.8274C9.03273 13.1935 8.96404 12.4961 9.09788 11.8232C9.23172 11.1503 9.56209 10.5323 10.0472 10.0471C10.5323 9.56203 11.1504 9.23166 11.8233 9.09782C12.4961 8.96398 13.1936 9.03267 13.8274 9.29521C14.4612 9.55775 15.003 10.0024 15.3841 10.5728C15.7653 11.1432 15.9687 11.8139 15.9687 12.4999C15.9687 12.9554 15.879 13.4065 15.7047 13.8274C15.5304 14.2482 15.2749 14.6306 14.9528 14.9527C14.6307 15.2748 14.2483 15.5303 13.8274 15.7046C13.4066 15.8789 12.9555 15.9687 12.5 15.9687Z" fill="#111111"/>
</svg>
