<svg width="25" height="25" viewBox="0 0 25 25" fill="none" xmlns="http://www.w3.org/2000/svg">
<path d="M23.949 4.11449C23.949 3.93063 23.9003 3.75006 23.8079 3.59111C23.7155 3.43216 23.5826 3.30051 23.4229 3.20952C23.2631 3.11852 23.0821 3.07144 22.8983 3.07304C22.7144 3.07465 22.5342 3.12489 22.3761 3.21866C21.7661 3.582 21.1094 3.86027 20.424 4.04574C19.4459 3.20644 18.1983 2.74721 16.9094 2.75199C15.4956 2.75368 14.1378 3.30473 13.1226 4.28878C12.1075 5.27283 11.5145 6.61287 11.4688 8.02595C8.6811 7.58149 6.15451 6.1265 4.37089 3.93845C4.26342 3.80821 4.12623 3.70569 3.97088 3.63953C3.81553 3.57336 3.64655 3.54549 3.47818 3.55824C3.30985 3.57217 3.14743 3.62687 3.00497 3.71761C2.8625 3.80836 2.74427 3.93241 2.66047 4.07907C2.23081 4.82897 1.98406 5.66962 1.94026 6.53278C1.89646 7.39593 2.05684 8.25725 2.40839 9.04678L2.40631 9.04782C2.24796 9.14512 2.11727 9.28149 2.0268 9.44384C1.93632 9.60618 1.88909 9.78905 1.88964 9.97491C1.88797 10.1278 1.89737 10.2806 1.91776 10.4322C2.02414 11.7427 2.60488 12.9693 3.5511 13.8822C3.48689 14.0046 3.44774 14.1386 3.43593 14.2763C3.42413 14.414 3.43991 14.5527 3.48235 14.6843C3.89482 15.9699 4.7722 17.0553 5.94276 17.728C4.75336 18.1879 3.46912 18.3481 2.20318 18.1947C1.96898 18.1656 1.73184 18.2168 1.53059 18.3401C1.32933 18.4634 1.1759 18.6513 1.09541 18.8731C1.01492 19.095 1.01216 19.3376 1.08756 19.5612C1.16297 19.7849 1.31208 19.9763 1.51047 20.1041C3.68777 21.5062 6.22285 22.2515 8.81256 22.2509C11.7493 22.284 14.6146 21.3456 16.9628 19.5818C19.311 17.8179 21.0105 15.3275 21.7969 12.4978C22.1646 11.2653 22.3523 9.98611 22.3542 8.69991L22.3532 8.49157C22.8971 7.90491 23.3184 7.21556 23.5925 6.46394C23.8665 5.71233 23.9877 4.91357 23.949 4.11449ZM20.5053 7.46032C20.333 7.66367 20.2457 7.92555 20.2615 8.19157C20.2719 8.36345 20.2709 8.53637 20.2709 8.69991C20.2687 9.78655 20.1094 10.8672 19.798 11.9082C19.156 14.3162 17.7244 16.439 15.7326 17.9367C13.7409 19.4344 11.3041 20.2204 8.81256 20.1687C7.9179 20.1688 7.02634 20.0636 6.15631 19.8551C7.266 19.4972 8.30355 18.9457 9.22089 18.2259C9.39004 18.093 9.51386 17.9108 9.57533 17.7046C9.6368 17.4984 9.6329 17.2782 9.56417 17.0743C9.49545 16.8704 9.36526 16.6928 9.1915 16.5659C9.01775 16.439 8.80895 16.369 8.59381 16.3655C7.72789 16.352 6.90106 16.0028 6.28756 15.3916C6.44311 15.3624 6.59762 15.3259 6.7511 15.2822C6.97612 15.2182 7.17307 15.0804 7.3102 14.8908C7.44733 14.7013 7.51667 14.4711 7.50705 14.2374C7.49742 14.0036 7.4094 13.7799 7.25715 13.6023C7.1049 13.4247 6.89729 13.3035 6.66776 13.2582C6.16515 13.159 5.69221 12.9451 5.28571 12.6333C4.87922 12.3214 4.55012 11.9201 4.32401 11.4603C4.5123 11.4861 4.70179 11.502 4.89172 11.5082C5.11743 11.512 5.33846 11.4437 5.52276 11.3133C5.70706 11.183 5.84505 10.9973 5.91672 10.7832C5.98552 10.5674 5.98207 10.335 5.90688 10.1212C5.83169 9.9075 5.68886 9.72411 5.50006 9.59887C5.04165 9.29372 4.6661 8.87964 4.40705 8.3937C4.14799 7.90777 4.01352 7.36516 4.01568 6.81449C4.01568 6.74574 4.01776 6.67595 4.02193 6.60824C6.35679 8.78598 9.38538 10.0697 12.574 10.2332C12.735 10.2394 12.8953 10.2088 13.0427 10.1438C13.1902 10.0788 13.3209 9.98118 13.4251 9.85824C13.5282 9.73454 13.6013 9.58861 13.6385 9.4319C13.6757 9.2752 13.6761 9.11199 13.6396 8.95512C13.58 8.70638 13.5496 8.45153 13.549 8.19574C13.5501 7.30484 13.9045 6.45075 14.5345 5.82078C15.1644 5.19082 16.0185 4.83643 16.9094 4.83532C17.3679 4.83397 17.8217 4.92769 18.2421 5.11057C18.6626 5.29344 19.0405 5.5615 19.3521 5.89782C19.4723 6.02712 19.6235 6.12352 19.7914 6.17785C19.9594 6.23219 20.1384 6.24265 20.3115 6.20824C20.7394 6.12506 21.1612 6.013 21.574 5.87282C21.2926 6.44868 20.9329 6.9829 20.5053 7.46032Z" fill="#111111"/>
</svg>
