<svg width="25" height="25" viewBox="0 0 25 25" fill="none" xmlns="http://www.w3.org/2000/svg">
<path d="M15.7709 12.3053C15.3535 12.0372 14.9004 11.8293 14.425 11.6875C14.1334 11.599 13.8105 11.5125 13.4771 11.4303C13.1855 11.349 12.8396 11.2657 12.4125 11.1719C11.9029 11.0651 11.4027 10.9174 10.9167 10.7303C10.6663 10.633 10.4452 10.4726 10.275 10.2646C10.1505 10.0945 10.0913 9.88521 10.1084 9.67504C10.108 9.4497 10.1832 9.23074 10.3219 9.05317C10.5161 8.82573 10.768 8.65481 11.0511 8.55838C11.5273 8.39476 12.0291 8.31854 12.5323 8.33338C12.9218 8.32692 13.31 8.37817 13.6844 8.48546C13.9327 8.55532 14.1666 8.66891 14.375 8.82088C14.5098 8.91707 14.6248 9.03839 14.7136 9.17817C14.7779 9.29956 14.8656 9.40702 14.9716 9.49438C15.0776 9.58175 15.1999 9.64727 15.3313 9.68719C15.4628 9.72712 15.6008 9.74064 15.7375 9.727C15.8742 9.71336 16.0068 9.67281 16.1278 9.60769C16.2488 9.54258 16.3556 9.45418 16.4423 9.34758C16.529 9.24099 16.5937 9.11831 16.6327 8.98661C16.6718 8.8549 16.6844 8.71677 16.6698 8.58017C16.6553 8.44357 16.6139 8.31119 16.548 8.19067C16.3283 7.80214 16.0316 7.46257 15.6761 7.19275C15.2653 6.8772 14.7994 6.64088 14.3021 6.49588C13.7281 6.32628 13.1319 6.24343 12.5334 6.25004C11.7725 6.23367 11.0152 6.35725 10.299 6.61463C9.65132 6.85041 9.08237 7.26241 8.65629 7.80421C8.2482 8.34294 8.02727 9.00024 8.02713 9.67608C8.01023 10.3489 8.22335 11.0074 8.63129 11.5428C9.02513 12.0388 9.54139 12.4236 10.1292 12.6594C10.5734 12.8303 11.0282 12.9723 11.4907 13.0844C11.499 13.0875 11.5053 13.0948 11.5136 13.0969C11.7136 13.1573 12.0323 13.2375 12.4928 13.3365C12.673 13.3761 12.8417 13.4188 13.0105 13.4615C13.0271 13.4657 13.0511 13.4709 13.0667 13.4761L13.0855 13.4782C13.3438 13.5448 13.5928 13.6125 13.8209 13.6823C14.1011 13.7643 14.3686 13.8849 14.6157 14.0407C14.7697 14.1374 14.8992 14.2687 14.9938 14.424C15.0854 14.6135 15.1277 14.8231 15.1167 15.0334C15.1311 15.3055 15.0525 15.5744 14.8938 15.7959C14.6794 16.0748 14.3895 16.2863 14.0584 16.4052C13.5649 16.5957 13.0381 16.685 12.5094 16.6677C11.898 16.6912 11.2898 16.5684 10.7355 16.3094C10.4794 16.1731 10.2595 15.9778 10.0938 15.7396C9.9775 15.5872 9.90477 15.4062 9.88338 15.2157C9.88338 14.9394 9.77363 14.6744 9.57828 14.4791C9.38293 14.2837 9.11798 14.174 8.84171 14.174C8.56544 14.174 8.30049 14.2837 8.10514 14.4791C7.90979 14.6744 7.80004 14.9394 7.80004 15.2157C7.81721 15.8303 8.01903 16.4256 8.37921 16.924C8.73918 17.4424 9.21866 17.8665 9.77713 18.1605C10.6268 18.575 11.5643 18.7777 12.5094 18.7511C13.3125 18.7705 14.1112 18.627 14.8573 18.3292C15.5509 18.0631 16.1531 17.6027 16.5917 17.0032C17.0087 16.4191 17.2224 15.7142 17.2 14.9969C17.2097 14.4408 17.0751 13.8917 16.8094 13.4032C16.5528 12.9621 16.1973 12.5866 15.7709 12.3063V12.3053ZM23.2928 14.2615C23.5736 12.5496 23.4429 10.7954 22.9113 9.1441C22.3798 7.49275 21.4628 5.99167 20.2361 4.765C19.0095 3.53832 17.5084 2.62131 15.857 2.08979C14.2057 1.55828 12.4515 1.42753 10.7396 1.70838C9.47568 1.10236 8.05479 0.903619 6.67307 1.1396C5.29136 1.37558 4.01697 2.03464 3.0258 3.0258C2.03464 4.01697 1.37558 5.29136 1.1396 6.67307C0.903619 8.05479 1.10236 9.47568 1.70838 10.7396C1.42777 12.4513 1.55864 14.2053 2.09019 15.8564C2.62174 17.5075 3.53868 19.0084 4.7652 20.2349C5.99172 21.4614 7.49259 22.3783 9.14371 22.9099C10.7948 23.4414 12.5487 23.5723 14.2605 23.2917C15.5244 23.8977 16.9453 24.0965 18.327 23.8605C19.7087 23.6245 20.9831 22.9655 21.9743 21.9743C22.9655 20.9831 23.6245 19.7087 23.8605 18.327C24.0965 16.9453 23.8977 15.5244 23.2917 14.2605L23.2928 14.2615ZM17.1875 21.875C16.3972 21.8747 15.6196 21.6748 14.9271 21.2938C14.7123 21.1754 14.4627 21.1363 14.2219 21.1834C12.9381 21.4394 11.6135 21.4073 10.3436 21.0895C9.07375 20.7716 7.89025 20.1758 6.8785 19.3451C5.86676 18.5144 5.05199 17.4696 4.49298 16.2858C3.93396 15.1021 3.64464 13.8091 3.64588 12.5C3.64695 11.9216 3.70416 11.3446 3.81671 10.7771C3.86384 10.5364 3.82475 10.2867 3.70629 10.0719C3.21719 9.18233 3.03009 8.158 3.17315 7.15295C3.31621 6.1479 3.78168 5.21645 4.49958 4.49867C5.21748 3.78089 6.14901 3.31557 7.15408 3.17267C8.15915 3.02978 9.18345 3.21704 10.073 3.70629C10.288 3.82525 10.5381 3.86436 10.7792 3.81671C12.0629 3.56084 13.3874 3.59304 14.6572 3.91101C15.9269 4.22898 17.1103 4.82478 18.1219 5.65544C19.1335 6.48611 19.9482 7.53093 20.5072 8.71455C21.0661 9.89816 21.3554 11.1911 21.3542 12.5C21.3531 13.0785 21.2959 13.6555 21.1834 14.223C21.1363 14.4637 21.1753 14.7134 21.2938 14.9282C21.6867 15.6418 21.8869 16.4456 21.8744 17.2601C21.862 18.0747 21.6374 18.872 21.2229 19.5733C20.8083 20.2746 20.2181 20.8557 19.5105 21.2594C18.8029 21.663 18.0022 21.8752 17.1875 21.875Z" fill="#111111"/>
</svg>
